<svg width="21" height="20" viewBox="0 0 21 20" fill="none" xmlns="http://www.w3.org/2000/svg">
<path d="M10.26 0C15.917 0 20.5 4.477 20.5 10C20.5 15.523 15.916 20 10.26 20C7.069 20 4.118 18.563 2.19 16.154C2.13595 16.0867 2.09598 16.0093 2.07246 15.9262C2.04894 15.8432 2.04234 15.7563 2.05307 15.6706C2.0638 15.585 2.09163 15.5024 2.1349 15.4277C2.17818 15.3531 2.23603 15.2879 2.305 15.236C2.44565 15.129 2.62243 15.0809 2.7979 15.102C2.97336 15.1231 3.13372 15.2117 3.245 15.349C4.08843 16.3972 5.15709 17.2421 6.37168 17.8208C7.58627 18.3995 8.91559 18.6973 10.261 18.692C15.176 18.692 19.161 14.8 19.161 10C19.161 5.2 15.176 1.308 10.261 1.308C8.93481 1.3029 7.62402 1.59223 6.42319 2.15512C5.22237 2.718 4.16146 3.54041 3.317 4.563C3.20396 4.69904 3.04236 4.78569 2.86648 4.80454C2.69061 4.8234 2.51431 4.77299 2.375 4.664C2.30663 4.61123 2.24956 4.54524 2.20721 4.46997C2.16486 4.39469 2.13808 4.31167 2.12847 4.22583C2.11886 4.14 2.12662 4.05311 2.15127 3.97033C2.17593 3.88756 2.21699 3.81059 2.272 3.744C4.203 1.394 7.114 0 10.26 0ZM10.806 6.862L13.513 9.569C13.775 9.831 13.78 10.249 13.524 10.505L10.88 13.15C10.8178 13.2109 10.7442 13.2589 10.6634 13.2913C10.5826 13.3237 10.4963 13.3398 10.4092 13.3388C10.3222 13.3378 10.2362 13.3196 10.1562 13.2853C10.0762 13.251 10.0038 13.2013 9.943 13.139C9.88075 13.0782 9.8311 13.0057 9.7969 12.9256C9.7627 12.8456 9.74462 12.7596 9.74369 12.6726C9.74276 12.5855 9.75901 12.4992 9.79149 12.4184C9.82397 12.3377 9.87206 12.2641 9.933 12.202L11.48 10.654L1.17 10.655C1.08298 10.6561 0.996606 10.6399 0.915819 10.6076C0.835032 10.5752 0.761417 10.5273 0.699188 10.4664C0.636958 10.4056 0.587334 10.3331 0.553156 10.253C0.518977 10.173 0.500914 10.087 0.5 10C0.5 9.639 0.8 9.346 1.17 9.346H11.438L9.88 7.787C9.81775 7.72617 9.7681 7.65367 9.7339 7.57363C9.6997 7.4936 9.68162 7.4076 9.68069 7.32057C9.67976 7.23354 9.69601 7.14718 9.72849 7.06644C9.76097 6.98569 9.80906 6.91214 9.87 6.85C9.99555 6.72767 10.1645 6.66013 10.3398 6.66219C10.5151 6.66425 10.6824 6.73575 10.805 6.861" fill="white"/>
</svg>
