<svg width="51" height="50" viewBox="0 0 51 50" fill="none" xmlns="http://www.w3.org/2000/svg">
<path d="M48.5218 26.652C47.1258 33.171 42.3298 38.526 36.0058 40.628C34.0795 41.2716 32.0619 41.6002 30.0308 41.601C26.0642 41.6057 22.197 40.3605 18.9783 38.0423C15.7597 35.7241 13.3532 32.4507 12.1008 28.687C11.31 26.3375 10.9939 23.8543 11.1707 21.3817C11.3475 18.909 12.0138 16.496 13.1308 14.283C14.2371 12.0621 15.7727 10.0826 17.6488 8.4588C19.5249 6.83504 21.7042 5.59929 24.0608 4.823C28.556 3.32853 33.4482 3.57439 37.7708 5.512L38.7058 3.749C32.4428 -0.120005 24.6418 -1.046 17.6278 1.287C11.2848 3.396 6.14383 7.84599 3.15183 13.815C0.159827 19.785 -0.324172 26.561 1.78783 32.895C3.44648 37.8799 6.63355 42.2155 10.8964 45.286C15.1593 48.3566 20.2812 50.006 25.5348 50C28.2168 50 30.8778 49.567 33.4458 48.714C38.1179 47.1695 42.2292 44.2786 45.2631 40.4045C48.297 36.5304 50.1182 31.846 50.4978 26.94L48.5218 26.652ZM36.1968 14.603L31.1828 5.219L28.6328 15.696L18.2038 17.746L27.7508 23.167L26.1088 33.963L34.2158 26.589L44.2618 31.409L39.1308 21.382L47.2548 13.54L36.1968 14.603Z" fill="white"/>
</svg>
