<svg width="35" height="34" viewBox="0 0 35 34" fill="none" xmlns="http://www.w3.org/2000/svg">
<path d="M21.75 0C22.0156 0 22.2706 0.159375 22.43 0.425C24.2734 3.49961 26.5791 5.39883 29.5222 7.8293C29.7984 8.05508 30.08 8.29414 30.3722 8.5332C31.9075 9.8082 32.8 11.9664 32.8 14.2508C32.8 16.15 32.1997 17.8699 31.2169 19.125H12.2831C11.3056 17.8633 10.7 16.1434 10.7 14.2508C10.7 11.9664 11.5872 9.8082 13.1278 8.5332C13.4147 8.29414 13.7016 8.06172 13.9778 7.8293C16.9209 5.39883 19.2266 3.49961 21.07 0.425C21.2294 0.159375 21.4844 0 21.75 0ZM15.8 34V29.2188C15.8 28.3355 15.2316 27.625 14.525 27.625C13.8184 27.625 13.25 28.3355 13.25 29.2188V34H10.7C9.75969 34 9 33.0504 9 31.875V23.375C9 22.1996 9.75969 21.25 10.7 21.25H32.8C33.7403 21.25 34.5 22.1996 34.5 23.375V31.875C34.5 33.0504 33.7403 34 32.8 34H30.25V29.2188C30.25 28.3355 29.6816 27.625 28.975 27.625C28.2684 27.625 27.7 28.3355 27.7 29.2188V34H24.3V30.1484C24.3 28.8867 23.8538 27.6914 23.0781 26.8812L21.75 25.5L20.4219 26.8812C19.6463 27.6914 19.2 28.8867 19.2 30.1484V34H15.8ZM4.24 0.345312C4.38678 0.206346 4.56587 0.131138 4.75 0.131138C4.93413 0.131138 5.11322 0.206346 5.26 0.345312L6.11 1.14219C7.92688 2.84883 9 5.525 9 8.36719V8.5H0.5V8.36719C0.5 5.525 1.57313 2.84883 3.39 1.14219L4.24 0.345312ZM0.5 10.625H9V19.6961C7.98531 20.4332 7.3 21.8012 7.3 23.375V31.875C7.3 32.5125 7.41156 33.1102 7.60813 33.6547C7.2575 33.8805 6.86438 34 6.45 34H3.05C1.64219 34 0.5 32.5723 0.5 30.8125V11.6875V10.625Z" fill="white"/>
</svg>
