<svg width="44" height="34" viewBox="0 0 44 34" fill="none" xmlns="http://www.w3.org/2000/svg">
<path d="M27.375 0C27.7109 0 28.0334 0.159375 28.235 0.425C30.5664 3.49961 33.4823 5.39883 37.2045 7.8293C37.5539 8.05508 37.91 8.29414 38.2795 8.5332C40.2213 9.8082 41.35 11.9664 41.35 14.2508C41.35 16.15 40.5908 17.8699 39.3478 19.125H15.4022C14.1659 17.8633 13.4 16.1434 13.4 14.2508C13.4 11.9664 14.522 9.8082 16.4705 8.5332C16.8333 8.29414 17.1961 8.06172 17.5455 7.8293C21.2677 5.39883 24.1836 3.49961 26.515 0.425C26.7166 0.159375 27.0391 0 27.375 0ZM19.85 34V29.2188C19.85 28.3355 19.1311 27.625 18.2375 27.625C17.3439 27.625 16.625 28.3355 16.625 29.2188V34H13.4C12.2108 34 11.25 33.0504 11.25 31.875V23.375C11.25 22.1996 12.2108 21.25 13.4 21.25H41.35C42.5392 21.25 43.5 22.1996 43.5 23.375V31.875C43.5 33.0504 42.5392 34 41.35 34H38.125V29.2188C38.125 28.3355 37.4061 27.625 36.5125 27.625C35.6189 27.625 34.9 28.3355 34.9 29.2188V34H30.6V30.1484C30.6 28.8867 30.0356 27.6914 29.0547 26.8812L27.375 25.5L25.6953 26.8812C24.7144 27.6914 24.15 28.8867 24.15 30.1484V34H19.85ZM5.23 0.345312C5.41564 0.206346 5.64213 0.131138 5.875 0.131138C6.10787 0.131138 6.33437 0.206346 6.52 0.345312L7.595 1.14219C9.89281 2.84883 11.25 5.525 11.25 8.36719V8.5H0.5V8.36719C0.5 5.525 1.85719 2.84883 4.155 1.14219L5.23 0.345312ZM0.5 10.625H11.25V19.6961C9.96672 20.4332 9.1 21.8012 9.1 23.375V31.875C9.1 32.5125 9.24109 33.1102 9.48969 33.6547C9.04625 33.8805 8.54906 34 8.025 34H3.725C1.94453 34 0.5 32.5723 0.5 30.8125V11.6875V10.625Z" fill="#094067"/>
</svg>
